<svg xmlns="http://www.w3.org/2000/svg" viewBox="0 0 32 32" width="32" height="32">
  <!-- Background circle con color Contadoor -->
  <circle cx="16" cy="16" r="16" fill="#8A3F83"/>

  <!-- Calculadora - Cuerpo principal -->
  <rect x="8" y="7" width="16" height="18" rx="2" fill="white"/>

  <!-- Pantalla de la calculadora -->
  <rect x="10" y="9" width="12" height="4" rx="1" fill="#f8f9fa"/>

  <!-- Display text lines -->
  <rect x="11" y="10.5" width="8" height="0.5" rx="0.25" fill="#8A3F83" opacity="0.7"/>
  <rect x="11" y="11.5" width="5" height="0.5" rx="0.25" fill="#8A3F83" opacity="0.5"/>

  <!-- Botones calculadora en grid -->
  <!-- Fila 1 -->
  <rect x="10" y="15" width="2.5" height="2" rx="0.3" fill="#8A3F83"/>
  <rect x="13.25" y="15" width="2.5" height="2" rx="0.3" fill="#8A3F83"/>
  <rect x="16.5" y="15" width="2.5" height="2" rx="0.3" fill="#8A3F83"/>
  <rect x="19.75" y="15" width="2.25" height="2" rx="0.3" fill="#D0A5CC"/>

  <!-- Fila 2 -->
  <rect x="10" y="17.5" width="2.5" height="2" rx="0.3" fill="#8A3F83"/>
  <rect x="13.25" y="17.5" width="2.5" height="2" rx="0.3" fill="#8A3F83"/>
  <rect x="16.5" y="17.5" width="2.5" height="2" rx="0.3" fill="#8A3F83"/>
  <rect x="19.75" y="17.5" width="2.25" height="2" rx="0.3" fill="#D0A5CC"/>

  <!-- Fila 3 -->
  <rect x="10" y="20" width="2.5" height="2" rx="0.3" fill="#8A3F83"/>
  <rect x="13.25" y="20" width="2.5" height="2" rx="0.3" fill="#8A3F83"/>
  <rect x="16.5" y="20" width="2.5" height="2" rx="0.3" fill="#8A3F83"/>
  <!-- Botón igual más alto -->
  <rect x="19.75" y="20" width="2.25" height="2.5" rx="0.3" fill="#6F326A"/>
</svg>